<svg id="Cart" xmlns="http://www.w3.org/2000/svg" width="24" height="24" viewBox="0 0 24 24">
  <rect id="Rectangle_65" data-name="Rectangle 65" width="24" height="24" fill="none"/>
  <g id="Icon_feather-shopping-cart" data-name="Icon feather-shopping-cart" transform="translate(1 2)">
    <path id="Path_23" data-name="Path 23" d="M10,21a1,1,0,1,1-1-1A1,1,0,0,1,10,21Z" transform="translate(-1 -1)" fill="none" stroke="#000" stroke-linecap="round" stroke-linejoin="round" stroke-width="2"/>
    <path id="Path_24" data-name="Path 24" d="M21,21a1,1,0,1,1-1-1A1,1,0,0,1,21,21Z" transform="translate(-1 -1)" fill="none" stroke="#000" stroke-linecap="round" stroke-linejoin="round" stroke-width="2"/>
    <path id="Path_25" data-name="Path 25" d="M1,1H5L7.68,14.39a2,2,0,0,0,2,1.61H19.4a2,2,0,0,0,2-1.61L23,6H6" transform="translate(-1 -1)" fill="none" stroke="#000" stroke-linecap="round" stroke-linejoin="round" stroke-width="2"/>
  </g>
</svg>
