<svg id="More" xmlns="http://www.w3.org/2000/svg" width="24" height="24" viewBox="0 0 24 24">
  <rect id="Rectangle_66" data-name="Rectangle 66" width="24" height="24" fill="none"/>
  <g id="Icon_feather-more-vertical" data-name="Icon feather-more-vertical" transform="translate(11 4)">
    <path id="Path_26" data-name="Path 26" d="M13,12a1,1,0,1,1-1-1A1,1,0,0,1,13,12Z" transform="translate(-11 -4)" fill="none" stroke="#000" stroke-linecap="round" stroke-linejoin="round" stroke-width="2"/>
    <path id="Path_27" data-name="Path 27" d="M13,5a1,1,0,1,1-1-1A1,1,0,0,1,13,5Z" transform="translate(-11 -4)" fill="none" stroke="#000" stroke-linecap="round" stroke-linejoin="round" stroke-width="2"/>
    <path id="Path_28" data-name="Path 28" d="M13,19a1,1,0,1,1-1-1A1,1,0,0,1,13,19Z" transform="translate(-11 -4)" fill="none" stroke="#000" stroke-linecap="round" stroke-linejoin="round" stroke-width="2"/>
  </g>
</svg>
