<svg xmlns="http://www.w3.org/2000/svg" width="110.912" height="33" viewBox="0 0 110.912 33"><g transform="translate(3234.912 -4289)"><path d="M1,0H36a1,1,0,0,1,1,1V32a1,1,0,0,1-1,1H1a1,1,0,0,1-1-1V1A1,1,0,0,1,1,0Z" transform="translate(-3161 4289)"/><path d="M3.485-12V0h-2.4V-12Zm7.786,2.448a3.335,3.335,0,0,1,2.6,1.071,4.327,4.327,0,0,1,.969,3.009V0h-2.38V-5.2a2.459,2.459,0,0,0-.578-1.742A2.055,2.055,0,0,0,10.3-7.565,2.114,2.114,0,0,0,8.67-6.9,2.708,2.708,0,0,0,8.058-5V0h-2.4V-9.418h2.4v1.887A3,3,0,0,1,9.291-9.019,3.664,3.664,0,0,1,11.271-9.554Zm8.925.017a4.154,4.154,0,0,1,2.754.867,3.755,3.755,0,0,1,1.292,2.312H22a1.866,1.866,0,0,0-.612-1.088,1.84,1.84,0,0,0-1.241-.408,1.426,1.426,0,0,0-.952.289.973.973,0,0,0-.34.782.8.8,0,0,0,.272.629,1.959,1.959,0,0,0,.68.374q.408.136,1.173.323a12.063,12.063,0,0,1,1.743.5,2.883,2.883,0,0,1,1.156.833,2.3,2.3,0,0,1,.484,1.538,2.377,2.377,0,0,1-.943,1.955,3.979,3.979,0,0,1-2.542.748,4.8,4.8,0,0,1-2.941-.825A3.466,3.466,0,0,1,16.592-3.06h2.295a1.551,1.551,0,0,0,.612,1.1,2.219,2.219,0,0,0,1.377.4,1.333,1.333,0,0,0,.935-.3,1,1,0,0,0,.323-.773.854.854,0,0,0-.281-.663,1.894,1.894,0,0,0-.7-.391q-.416-.136-1.181-.323A13.317,13.317,0,0,1,18.267-4.5a2.728,2.728,0,0,1-1.122-.79,2.221,2.221,0,0,1-.468-1.5,2.449,2.449,0,0,1,.935-1.989A3.968,3.968,0,0,1,20.2-9.537Zm11.577,0a4.046,4.046,0,0,1,2.142.578A3.9,3.9,0,0,1,35.4-7.285a5.807,5.807,0,0,1,.535,2.576A5.807,5.807,0,0,1,35.4-2.134,3.9,3.9,0,0,1,33.915-.459a4.046,4.046,0,0,1-2.142.578,3.539,3.539,0,0,1-2.031-.57,3.116,3.116,0,0,1-1.2-1.522v6.46h-2.4V-9.418h2.4v1.955a3.07,3.07,0,0,1,1.2-1.513A3.578,3.578,0,0,1,31.773-9.537Zm-.748,2.091a2.372,2.372,0,0,0-1.793.74,2.774,2.774,0,0,0-.705,2,2.75,2.75,0,0,0,.705,1.98,2.372,2.372,0,0,0,1.793.74,2.358,2.358,0,0,0,1.8-.723,2.8,2.8,0,0,0,.68-2,2.83,2.83,0,0,0-.68-2.006A2.344,2.344,0,0,0,31.025-7.446Zm6.341-4.675a1.209,1.209,0,0,1,.408-.943,1.545,1.545,0,0,1,1.071-.365,1.545,1.545,0,0,1,1.071.365,1.209,1.209,0,0,1,.408.943,1.19,1.19,0,0,1-.408.927,1.545,1.545,0,0,1-1.071.365,1.545,1.545,0,0,1-1.071-.365A1.19,1.19,0,0,1,37.366-12.121Zm2.669,2.7V0h-2.4V-9.418Zm4.573,1.8A3.94,3.94,0,0,1,46-9.036a3.7,3.7,0,0,1,1.938-.519v2.567h-.7q-2.635,0-2.635,2.448V0h-2.4V-9.418h2.4Zm8.347-1.921A3.619,3.619,0,0,1,55-8.976,3.055,3.055,0,0,1,56.2-7.463V-9.418h2.38V0H56.2V-1.972A3.1,3.1,0,0,1,55-.451a3.579,3.579,0,0,1-2.04.57,4.046,4.046,0,0,1-2.142-.578,3.9,3.9,0,0,1-1.487-1.675,5.807,5.807,0,0,1-.535-2.576,5.807,5.807,0,0,1,.535-2.576,3.9,3.9,0,0,1,1.487-1.674A4.046,4.046,0,0,1,52.955-9.537ZM53.7-7.446a2.344,2.344,0,0,0-1.8.731,2.83,2.83,0,0,0-.68,2.006,2.8,2.8,0,0,0,.68,2,2.358,2.358,0,0,0,1.8.723,2.372,2.372,0,0,0,1.793-.74,2.75,2.75,0,0,0,.705-1.98,2.774,2.774,0,0,0-.705-2A2.372,2.372,0,0,0,53.7-7.446ZM65.79-2.057V0H64.532A3.48,3.48,0,0,1,62.11-.765a3.312,3.312,0,0,1-.841-2.55V-7.4H59.959V-9.418h1.309v-2.329h2.4v2.329h2.108V-7.4H63.665v4.114a1.327,1.327,0,0,0,.272.952,1.27,1.27,0,0,0,.918.272Zm1.445-10.064a1.209,1.209,0,0,1,.408-.943,1.545,1.545,0,0,1,1.071-.365,1.545,1.545,0,0,1,1.071.365,1.209,1.209,0,0,1,.408.943,1.19,1.19,0,0,1-.408.927,1.545,1.545,0,0,1-1.071.365,1.545,1.545,0,0,1-1.071-.365A1.19,1.19,0,0,1,67.235-12.121Zm2.669,2.7V0h-2.4V-9.418Z" transform="translate(-3236 4312)"/><path d="M5.12-8.976a4.915,4.915,0,0,1,2.328.544A3.982,3.982,0,0,1,9.072-6.856a4.788,4.788,0,0,1,.592,2.424,4.744,4.744,0,0,1-.592,2.416A4.05,4.05,0,0,1,7.448-.44,4.857,4.857,0,0,1,5.12.112,4.857,4.857,0,0,1,2.792-.44,4.05,4.05,0,0,1,1.168-2.016,4.744,4.744,0,0,1,.576-4.432a4.788,4.788,0,0,1,.592-2.424A3.982,3.982,0,0,1,2.792-8.432,4.915,4.915,0,0,1,5.12-8.976Zm0,1.952a2.164,2.164,0,0,0-1.6.664,2.63,2.63,0,0,0-.656,1.928A2.63,2.63,0,0,0,3.52-2.5a2.164,2.164,0,0,0,1.6.664A2.164,2.164,0,0,0,6.72-2.5a2.63,2.63,0,0,0,.656-1.928A2.63,2.63,0,0,0,6.72-6.36,2.164,2.164,0,0,0,5.12-7.024ZM16.544-8.992a3.139,3.139,0,0,1,2.448,1.008A4.072,4.072,0,0,1,19.9-5.152V0h-2.24V-4.9a2.315,2.315,0,0,0-.544-1.64,1.934,1.934,0,0,0-1.488-.584A1.99,1.99,0,0,0,14.1-6.5,2.549,2.549,0,0,0,13.52-4.7V0H11.264V-8.864H13.52v1.776a2.824,2.824,0,0,1,1.16-1.4A3.448,3.448,0,0,1,16.544-8.992Z" transform="translate(-3155 4303)" fill="#fff"/></g></svg>